<svg xmlns="http://www.w3.org/2000/svg" width="2093.849" height="1427.37" viewBox="0 0 2093.849 1427.37"><defs><style>.a{fill:#62d4e7;}.b{fill:#ef8fae;}.c{fill:#f8d32a;}</style></defs><g transform="translate(101.344 152.61)"><g transform="translate(328.377 576)"><path class="a" d="M193.712-11.224c65.2,0,131.966,108.284,99.789,177.4S216.41,302.925,151.209,302.925,1.423,144.744,42.4,76.2,128.51-11.224,193.712-11.224Z" transform="translate(-31.631 11.224)"/></g><g transform="translate(471.728 -43)"><path class="b" d="M248.263-25.714c72.962,0,94.7,116.647,58.7,180.121S120.163,289.03,47.2,289.03s-45.857-155.351,0-218.3S175.3-25.714,248.263-25.714Z" transform="translate(-2.079 25.714)"/></g><g transform="translate(1170.365 666.255)"><path class="c" d="M154.969,21.131c-56.033,0-157.247,112.143-129.594,175.3s124.929,92.09,180.963,92.09S421.9,188.443,386.678,125.81,211,21.131,154.969,21.131Z" transform="translate(-20.682 -21.131)"/></g><g transform="translate(1292.351 -94.504)"><path class="a" d="M190.614,25.533C130.971,43.583-21.1,112.664,8.917,200.314s116.56,131.873,164.765,134.563S423.633,156.717,387.157,69.415,250.257,7.483,190.614,25.533Z" transform="translate(312.987 -7.348) rotate(70)"/></g><g transform="translate(-55.585 299.094)"><path class="c" d="M155.833-62.376c80.289,0,230.472,141.263,190.849,198.184S141.129,256.53,60.84,256.53-66.963,105.362-16.5,48.91,75.545-62.376,155.833-62.376Z" transform="translate(37.281 62.376)"/></g><g transform="translate(1568.899 369)"><path class="b" d="M267.58-28.525c109.367,0,226.507,107.412,172.533,164.332S316.5,283.777,207.136,283.777-17.991,164.859,50.747,108.407,158.213-28.525,267.58-28.525Z" transform="translate(-30.083 28.525)"/></g><g transform="translate(-101.344 681.301)"><path class="b" d="M183.535-11.224c56.374,0,114.1,104.736,86.279,171.589S257.408,355.414,111.156,366.786-49.052,132.228-13.621,65.926,127.161-11.224,183.535-11.224Z" transform="matrix(0.799, -0.602, 0.602, 0.799, 30.685, 175.685)"/></g><g transform="translate(545.728 760.255)"><path class="a" d="M231.421,72.633C166.447,98.6-.992,192.822,24.267,297.256S138.382,449.54,189.565,449.54s280.178-233.353,248.01-336.926S296.395,46.665,231.421,72.633Z" transform="translate(426.146 -32.993) rotate(74)"/></g><g transform="translate(1.08 -152.61)"><path class="a" d="M211.441,72.633C152.657,98.6,1.169,192.822,24.022,297.256S127.266,449.54,173.573,449.54,424.7,335.8,395.6,232.231,270.225,46.665,211.441,72.633Z" transform="translate(426.146 -39.538) rotate(74)"/></g><g transform="translate(961.08 -67.431)"><path class="c" d="M99.876,61.95C59.959,61.95-56.4,179.989-36.7,254.118s149.72,75.322,189.637,75.322S306.5,211.974,281.408,138.455,139.793,61.95,99.876,61.95Z" transform="translate(38.926 -61.95)"/></g><g transform="translate(1430.445 780.179)"><path class="b" d="M306.958-39.884c96.093,88.886,36.008,130.816,0,194.291S120.163,289.03,47.2,289.03,22.191,92.735,68.047,29.783,210.866-128.77,306.958-39.884Z" transform="matrix(0.848, 0.53, -0.53, 0.848, 144.987, 59.313)"/></g></g></svg>